<?xml version="1.0" encoding="UTF-8"?> <svg xmlns="http://www.w3.org/2000/svg" xmlns:xlink="http://www.w3.org/1999/xlink" height="600.65" viewBox="0 0 1440 600.65" width="1440"><linearGradient id="a" x1="100%" x2="0%" y1="49.999168%" y2="49.999168%"><stop offset="0" stop-color="#07171e"></stop><stop offset=".43" stop-color="#07171e" stop-opacity="0"></stop></linearGradient><linearGradient id="b"><stop offset="0" stop-color="#cfdde3"></stop><stop offset="0" stop-color="#ccdae0"></stop><stop offset=".15" stop-color="#98a6ad"></stop><stop offset=".29" stop-color="#6b7a81"></stop><stop offset=".43" stop-color="#47565d"></stop><stop offset=".57" stop-color="#2b3a41"></stop><stop offset=".72" stop-color="#17262d"></stop><stop offset=".86" stop-color="#0b1a21"></stop><stop offset="1" stop-color="#07171e"></stop></linearGradient><linearGradient id="c" x1="65.713109%" x2="27.619505%" xlink:href="#b" y1="-1.158142%" y2="93.071784%"></linearGradient><linearGradient id="d" x1="66.447016%" x2="33.548517%" y1="36.701411%" y2="57.049307%"><stop offset="0" stop-color="#07171e"></stop><stop offset=".14" stop-color="#0b1a21"></stop><stop offset=".28" stop-color="#17262d"></stop><stop offset=".43" stop-color="#2b3a41"></stop><stop offset=".57" stop-color="#47565d"></stop><stop offset=".71" stop-color="#6b7a81"></stop><stop offset=".85" stop-color="#98a6ad"></stop><stop offset=".99" stop-color="#ccdae0"></stop><stop offset="1" stop-color="#cfdde3"></stop></linearGradient><linearGradient id="e" x1="60.003313%" x2="40.957256%" y1="25.252134%" y2="72.364518%"><stop offset="0" stop-color="#07171e"></stop><stop offset=".29" stop-color="#0b1a21"></stop><stop offset=".57" stop-color="#17262d"></stop><stop offset=".86" stop-color="#2b3a41"></stop><stop offset="1" stop-color="#38474e"></stop></linearGradient><radialGradient id="f" cx="50%" cy="50%" r="50%"><stop offset="0" stop-color="#07171e"></stop><stop offset=".39" stop-color="#08181f"></stop><stop offset=".53" stop-color="#0f1f26"></stop><stop offset=".63" stop-color="#1b2b32"></stop><stop offset=".71" stop-color="#2c3c42"></stop><stop offset=".78" stop-color="#425158"></stop><stop offset=".84" stop-color="#5d6c73"></stop><stop offset=".9" stop-color="#7e8c93"></stop><stop offset=".95" stop-color="#a2b0b7"></stop><stop offset=".99" stop-color="#cbd9df"></stop><stop offset="1" stop-color="#cfdde3"></stop></radialGradient><linearGradient id="g" x1="72.37979%" x2="34.28653%" xlink:href="#b" y1="6.928126%" y2="101.156837%"></linearGradient><linearGradient id="h" x1="66.449992%" x2="33.551125%" xlink:href="#b" y1="42.950052%" y2="63.298402%"></linearGradient><linearGradient id="i" x1="59.042511%" x2="39.995456%" xlink:href="#b" y1="27.633836%" y2="74.746902%"></linearGradient><mask id="j" fill="#fff"><path d="m0-0h1440v600h-1440z" fill="#fff" fill-rule="evenodd"></path></mask><g fill="none" fill-rule="evenodd"><path d="m0 0h1440v600h-1440z" fill="#07171e" fill-rule="nonzero"></path><path d="m0 0h1440v600.65h-1440z" fill="url(#a)" fill-rule="nonzero" transform="matrix(-1 0 -0 -1 1440 600.65)"></path><g mask="url(#j)" opacity=".25"><g fill-rule="nonzero" transform="translate(715.75 -365.43)"><path d="m447.68 258.47-223.84 129.23v258.46l111.87-64.58v-129.29.05l56.03-32.35 55.94-32.29z" fill="url(#c)"></path><path d="m223.84 646.16 223.84 129.24 223.84-129.24-111.87-64.58v-.06l-111.97 64.64-111.97-64.64v.06z" fill="url(#d)"></path><path d="m447.68 258.47 223.84 129.23v258.46l-111.87-64.58v-129.29.05l-56.04-32.35-55.93-32.29z" fill="url(#e)"></path><circle cx="446.12" cy="516.03" fill="url(#f)" r="166.46"></circle><path d="m447.68 1033.86 447.67-258.46v-516.93l-223.73 129.17v258.58-.11l-112.07 64.7-111.87 64.59z" fill="url(#g)"></path><path d="m895.35 258.47-447.67-258.47-447.68 258.47 223.74 129.17v.12l223.94-129.29 223.94 129.29v-.12z" fill="url(#h)"></path><path d="m447.68 1033.86-447.68-258.46v-516.93l223.74 129.17v258.58-.11l112.07 64.7 111.87 64.59z" fill="url(#i)"></path></g></g></g></svg> 